<svg width="956" height="278" viewBox="0 0 956 278" fill="none" xmlns="http://www.w3.org/2000/svg">
<path d="M413.52 111.88L394.8 169H376.64L358 111.88H375.36L383.12 140.84C383.387 141.907 383.707 143.293 384.08 145C384.453 146.707 384.8 148.413 385.12 150.12C385.493 151.827 385.707 153.213 385.76 154.28C385.867 153.213 386.053 151.853 386.32 150.2C386.64 148.493 386.96 146.813 387.28 145.16C387.653 143.453 388 142.067 388.32 141L396.24 111.88H413.52ZM446.027 169H416.267V160.2L423.387 157.48V123.32L416.267 120.68V111.88H446.027V120.68L438.907 123.32V157.48L446.027 160.2V169ZM492.301 151.64C492.301 154.733 491.501 157.667 489.901 160.44C488.355 163.213 485.928 165.48 482.621 167.24C479.368 168.947 475.128 169.8 469.901 169.8C467.288 169.8 464.995 169.667 463.021 169.4C461.101 169.187 459.288 168.813 457.581 168.28C455.875 167.747 454.115 167.053 452.301 166.2V152.44C455.395 153.987 458.515 155.187 461.661 156.04C464.808 156.84 467.661 157.24 470.221 157.24C471.768 157.24 473.021 157.053 473.981 156.68C474.941 156.307 475.661 155.8 476.141 155.16C476.621 154.52 476.861 153.8 476.861 153C476.861 151.987 476.515 151.133 475.821 150.44C475.128 149.747 474.035 149.027 472.541 148.28C471.048 147.533 469.048 146.6 466.541 145.48C464.408 144.52 462.488 143.507 460.781 142.44C459.075 141.373 457.608 140.173 456.381 138.84C455.208 137.507 454.301 135.96 453.661 134.2C453.021 132.387 452.701 130.253 452.701 127.8C452.701 124.12 453.608 121.053 455.421 118.6C457.235 116.093 459.741 114.227 462.941 113C466.195 111.72 469.955 111.08 474.221 111.08C477.955 111.08 481.315 111.507 484.301 112.36C487.288 113.16 489.955 114.093 492.301 115.16L487.581 127.08C485.128 125.96 482.701 125.08 480.301 124.44C477.955 123.747 475.768 123.4 473.741 123.4C472.408 123.4 471.315 123.56 470.461 123.88C469.608 124.2 468.968 124.653 468.541 125.24C468.168 125.773 467.981 126.387 467.981 127.08C467.981 127.987 468.328 128.787 469.021 129.48C469.715 130.173 470.861 130.947 472.461 131.8C474.115 132.6 476.355 133.64 479.181 134.92C481.955 136.147 484.301 137.507 486.221 139C488.195 140.44 489.688 142.173 490.701 144.2C491.768 146.173 492.301 148.653 492.301 151.64ZM527.433 169H497.673V160.2L504.793 157.48V123.32L497.673 120.68V111.88H527.433V120.68L520.313 123.32V157.48L527.433 160.2V169ZM589.788 140.36C589.788 144.787 589.254 148.813 588.188 152.44C587.121 156.013 585.468 159.107 583.228 161.72C580.988 164.333 578.108 166.333 574.588 167.72C571.121 169.107 566.934 169.8 562.028 169.8C557.228 169.8 553.068 169.107 549.548 167.72C546.081 166.333 543.201 164.333 540.908 161.72C538.668 159.107 536.988 156.013 535.868 152.44C534.801 148.813 534.268 144.76 534.268 140.28C534.268 134.36 535.254 129.213 537.228 124.84C539.201 120.413 542.241 117 546.348 114.6C550.454 112.2 555.708 111 562.108 111C568.614 111 573.894 112.227 577.948 114.68C582.054 117.08 585.041 120.493 586.908 124.92C588.828 129.293 589.788 134.44 589.788 140.36ZM550.508 140.36C550.508 143.773 550.881 146.733 551.628 149.24C552.428 151.693 553.681 153.587 555.388 154.92C557.094 156.253 559.308 156.92 562.028 156.92C564.854 156.92 567.094 156.253 568.748 154.92C570.454 153.587 571.681 151.693 572.427 149.24C573.174 146.733 573.548 143.773 573.548 140.36C573.548 135.187 572.694 131.107 570.988 128.12C569.281 125.133 566.321 123.64 562.108 123.64C559.334 123.64 557.094 124.333 555.388 125.72C553.681 127.053 552.428 128.973 551.628 131.48C550.881 133.933 550.508 136.893 550.508 140.36ZM654.498 169H634.258L613.378 128.76H613.058C613.164 129.667 613.244 130.733 613.298 131.96C613.404 133.187 613.484 134.467 613.538 135.8C613.591 137.133 613.644 138.44 613.698 139.72C613.751 141 613.778 142.173 613.778 143.24V169H600.098V111.88H620.258L641.058 151.56H641.298C641.244 150.653 641.164 149.613 641.058 148.44C641.004 147.213 640.951 145.987 640.898 144.76C640.844 143.48 640.791 142.227 640.738 141C640.738 139.773 640.738 138.68 640.738 137.72V111.88H654.498V169ZM691.696 169L680.016 127.88H679.696C679.803 128.947 679.91 130.387 680.016 132.2C680.123 134.013 680.23 135.987 680.336 138.12C680.443 140.2 680.496 142.227 680.496 144.2V169H666.816V111.88H687.376L699.296 152.44H699.616L711.296 111.88H731.856V169H717.696V143.96C717.696 142.147 717.723 140.227 717.776 138.2C717.83 136.12 717.91 134.173 718.016 132.36C718.123 130.493 718.203 129.027 718.256 127.96H717.936L706.416 169H691.696ZM779.2 169L776.4 158.28H757.84L754.96 169H738L756.64 111.64H777.2L796.08 169H779.2ZM770.72 136.28C770.453 135.267 770.08 133.827 769.6 131.96C769.12 130.04 768.64 128.067 768.16 126.04C767.68 124.013 767.307 122.36 767.04 121.08C766.827 122.36 766.48 123.96 766 125.88C765.573 127.8 765.12 129.693 764.64 131.56C764.213 133.427 763.84 135 763.52 136.28L761.04 145.64H773.2L770.72 136.28ZM820.927 111.88C826.1 111.88 830.394 112.52 833.807 113.8C837.274 115.08 839.86 116.973 841.567 119.48C843.327 121.933 844.207 125.027 844.207 128.76C844.207 131.053 843.807 133.16 843.007 135.08C842.26 137 841.167 138.707 839.727 140.2C838.287 141.693 836.554 143 834.527 144.12L851.167 169H833.647L821.567 148.2H817.647V169H802.207V111.88H820.927ZM820.687 123.56H817.647V136.6H820.527C822.127 136.6 823.514 136.387 824.687 135.96C825.914 135.48 826.874 134.733 827.567 133.72C828.26 132.653 828.607 131.24 828.607 129.48C828.607 128.253 828.34 127.213 827.807 126.36C827.274 125.453 826.42 124.76 825.247 124.28C824.074 123.8 822.554 123.56 820.687 123.56ZM905.148 169H887.708L876.428 147.16L871.868 149.88V169H856.348V111.88H871.868V136.68C872.508 135.453 873.254 134.227 874.108 133C874.961 131.72 875.788 130.52 876.588 129.4L888.588 111.88H905.468L887.468 137.48L905.148 169Z" fill="#1C6DB8"/>
<path d="M171.974 77.7879C198.021 77.788 221.337 84.9777 237.971 96.2889C254.637 107.622 264.079 122.653 264.079 138.5C264.079 154.347 254.637 169.378 237.971 180.711C221.337 192.022 198.021 199.212 171.974 199.212C145.926 199.212 122.61 192.022 105.976 180.711C89.31 169.378 79.8674 154.347 79.8674 138.5C79.8675 122.653 89.3099 107.622 105.976 96.2889C122.61 84.9776 145.926 77.7879 171.974 77.7879Z" stroke="#1C6DB8" stroke-width="12"/>
<circle cx="172.973" cy="138.5" r="35.2045" stroke="#1C6DB8" stroke-width="12"/>
<circle cx="299.205" cy="138.205" r="35.2045" stroke="#1C6DB8" stroke-width="12"/>
<circle cx="172.205" cy="41.2045" r="35.2045" stroke="#1C6DB8" stroke-width="12"/>
<circle cx="172.205" cy="236.205" r="35.2045" stroke="#1C6DB8" stroke-width="12"/>
<circle cx="41.2045" cy="139.205" r="35.2045" stroke="#1C6DB8" stroke-width="12"/>
</svg>
